<?xml version="1.0" standalone="no"?>
<!DOCTYPE svg PUBLIC "-//W3C//DTD SVG 20010904//EN"
 "http://www.w3.org/TR/2001/REC-SVG-20010904/DTD/svg10.dtd">
<svg version="1.0" xmlns="http://www.w3.org/2000/svg"
 width="640.000000pt" height="640.000000pt" viewBox="0 0 640.000000 640.000000"
 preserveAspectRatio="xMidYMid meet">
<metadata>
Created by potrace 1.16, written by Peter Selinger 2001-2019
</metadata>
<g transform="translate(0.000000,640.000000) scale(0.100000,-0.100000)"
fill="#000000" stroke="none"
style=" border-radius: 50%;
"
>
<path d="M0 3200 l0 -3200 895 0 c693 0 896 3 902 13 12 18 156 326 175 372
75 184 165 392 174 402 9 9 15 6 25 -14 12 -22 11 -27 -6 -39 -16 -12 -17 -14
-2 -14 20 0 20 0 3 -74 -8 -33 -13 -64 -11 -70 2 -6 9 -44 16 -84 11 -63 10
-75 -2 -83 -10 -6 -10 -9 -1 -9 6 0 12 -9 12 -20 0 -25 20 -26 27 -1 3 11 13
21 23 24 13 3 17 0 14 -12 -2 -9 2 -4 9 12 7 15 16 25 19 22 7 -8 14 35 28
163 12 107 30 187 93 400 21 68 37 136 37 152 0 16 5 32 11 35 6 4 8 13 5 20
-3 8 2 28 11 45 17 35 9 55 -11 27 -31 -41 -44 -10 -50 113 -3 86 11 132 109
345 79 174 221 457 212 425 -3 -9 -15 -52 -27 -95 -12 -44 -35 -114 -50 -155
-73 -188 -82 -215 -86 -249 l-4 -36 11 35 c5 19 16 49 24 65 7 17 21 50 30 75
9 25 21 54 25 65 5 11 18 43 30 70 12 28 28 64 36 82 8 17 14 35 14 40 0 23
47 123 55 116 4 -5 5 -2 1 5 -4 6 0 19 8 28 15 14 16 12 16 -18 0 -19 -4 -38
-9 -43 -5 -6 -23 -57 -41 -115 -17 -58 -35 -114 -40 -125 -5 -11 -18 -42 -29
-70 -10 -27 -26 -63 -35 -80 -9 -16 -16 -37 -16 -45 0 -9 -7 -42 -15 -75 -9
-32 -16 -78 -17 -102 0 -24 -4 -43 -9 -43 -5 0 -9 -11 -9 -25 0 -35 13 -31 28
7 8 18 26 58 41 88 29 57 44 100 82 230 12 41 25 84 30 95 4 11 22 67 39 125
18 58 42 134 55 170 13 36 44 131 70 212 41 129 56 158 81 158 2 0 4 -6 4 -14
0 -8 7 -16 15 -20 8 -3 14 -11 13 -17 -2 -6 4 -12 12 -14 10 -2 16 8 19 29 6
56 5 111 -3 143 l-7 32 38 -11 c21 -5 80 -22 131 -36 85 -25 93 -29 89 -49 -3
-15 1 -23 9 -23 20 0 17 -19 -3 -28 -10 -4 -19 -18 -19 -32 -1 -14 -5 -41 -9
-60 -4 -19 -8 -41 -8 -47 0 -7 -3 -13 -6 -13 -3 0 -7 -12 -7 -28 -1 -32 -4
-45 -39 -186 -15 -60 -47 -163 -72 -230 -26 -66 -46 -127 -46 -133 0 -7 -4
-13 -8 -13 -5 0 -6 -7 -3 -15 4 -8 2 -15 -3 -15 -9 0 -11 -6 -15 -50 -1 -11
-6 -20 -11 -20 -4 0 -5 -4 -2 -10 3 -5 2 -10 -2 -10 -5 0 -9 -8 -10 -17 -2
-30 -13 -75 -24 -95 -5 -10 -7 -18 -3 -18 3 0 1 -6 -5 -13 -6 -8 -8 -17 -4
-20 3 -4 2 -7 -4 -7 -5 0 -10 -6 -10 -12 0 -7 -4 -29 -8 -48 -4 -19 -8 -41 -8
-47 0 -7 -4 -13 -8 -13 -10 0 -6 -34 6 -42 6 -5 6 -8 -1 -8 -15 0 -24 -36 -12
-48 6 -6 3 -15 -7 -26 -9 -9 -12 -16 -6 -16 6 0 11 -8 10 -17 0 -13 -2 -14 -6
-4 -4 10 -10 5 -18 -15 -8 -19 -8 -31 -2 -36 6 -4 4 -13 -6 -23 -20 -19 -32
-59 -22 -74 3 -6 1 -11 -5 -11 -7 0 -10 -7 -6 -15 3 -8 1 -15 -4 -15 -5 0 -7
-11 -4 -25 3 -19 0 -25 -13 -25 -15 0 -16 -2 -3 -10 8 -5 11 -10 5 -10 -5 0
-11 -17 -11 -37 -1 -21 -6 -39 -11 -40 -6 -2 -8 -15 -5 -28 2 -14 0 -25 -5
-25 -6 0 -9 -11 -8 -25 2 -14 0 -25 -5 -25 -4 0 -6 -11 -5 -25 2 -14 -1 -25
-6 -25 -4 0 -6 -7 -3 -15 4 -9 0 -15 -7 -15 -11 0 -11 -3 1 -10 8 -5 11 -10 5
-10 -9 0 -11 -16 -15 -93 -1 -11 -6 -15 -13 -10 -7 4 -6 0 2 -10 11 -14 11
-17 0 -17 -12 0 -12 -2 0 -9 8 -5 9 -10 3 -12 -6 -2 -14 -20 -17 -39 -3 -19
-11 -38 -18 -42 -9 -6 -9 -8 0 -8 6 0 9 -9 6 -20 -3 -11 -9 -20 -13 -20 -4 0
-6 -11 -5 -25 2 -14 -2 -25 -8 -25 -7 0 -6 -5 3 -10 10 -7 11 -13 5 -18 -6 -4
-10 -28 -10 -54 0 -37 -3 -48 -15 -48 -9 0 -11 -3 -5 -8 15 -10 12 -31 -5 -42
-13 -8 -13 -10 -1 -10 12 0 12 -3 3 -12 -9 -9 -7 -14 6 -25 16 -12 16 -13 -1
-7 -10 4 -17 3 -16 -2 1 -5 0 -11 -1 -14 -1 -3 -3 -18 -5 -35 -1 -16 -4 -37
-6 -45 -4 -13 207 -15 1844 -18 l1847 -2 0 3200 0 3200 -3200 0 -3200 0 0
-3200z m3173 2662 c11 -12 13 -22 7 -32 -5 -8 -10 -10 -10 -5 0 6 -4 4 -9 -4
-6 -9 -5 -22 2 -34 9 -15 9 -21 -1 -24 -6 -3 -10 -9 -7 -13 12 -19 -8 -122
-24 -128 -9 -3 -19 -10 -23 -16 -16 -24 -20 8 -10 76 6 41 9 84 5 96 -6 23
-27 29 -38 11 -4 -6 -12 -8 -19 -6 -6 2 -20 0 -31 -5 -18 -8 -18 -8 3 -4 13 2
20 0 16 -6 -4 -5 -17 -8 -29 -6 -16 4 -22 1 -18 -9 3 -7 0 -13 -5 -13 -6 0
-19 -13 -29 -30 -13 -22 -25 -30 -45 -30 -21 0 -28 -5 -28 -20 0 -13 -5 -18
-16 -13 -12 4 -14 0 -9 -23 6 -26 5 -27 -8 -11 -8 9 -17 17 -19 17 -5 0 -31
-55 -34 -70 0 -3 -4 -22 -8 -43 -5 -21 -9 -66 -10 -100 -1 -34 -5 -68 -10 -75
-15 -25 2 -24 43 2 76 49 270 117 324 115 12 0 -9 -9 -48 -19 -97 -25 -199
-67 -229 -95 -14 -13 -27 -20 -30 -17 -3 3 -6 0 -6 -6 0 -7 -3 -11 -7 -10 -11
4 -73 -44 -73 -55 0 -5 8 -6 18 -3 10 4 7 -2 -8 -13 -14 -11 -27 -17 -30 -14
-3 3 1 8 8 10 6 3 10 9 7 14 -4 5 -16 -3 -29 -18 -13 -15 -28 -23 -34 -19 -13
8 -14 74 -2 121 5 18 6 2 3 -40 -3 -38 -3 -68 0 -65 5 5 11 32 27 141 5 36 12
72 14 80 3 8 7 32 10 54 6 52 16 76 27 69 5 -3 6 2 3 10 -3 9 -1 16 5 16 6 0
10 3 9 8 -4 9 104 117 160 160 24 18 47 30 52 27 6 -4 10 -1 10 5 0 7 8 9 20
5 14 -4 20 -2 18 6 -3 12 93 69 117 69 6 0 19 -8 28 -18z m200 -51 c10 0 15
-5 12 -11 -3 -5 0 -10 7 -11 57 -3 104 -12 109 -21 4 -6 5 -29 2 -52 -6 -45
-32 -76 -67 -77 -21 0 -21 -1 -1 -10 17 -8 17 -9 -5 -4 -14 2 -35 5 -48 5 -13
0 -20 4 -17 10 3 6 4 14 0 19 -7 12 -71 -14 -68 -27 2 -11 -28 -26 -85 -41
-26 -7 -46 -20 -50 -31 -5 -14 -11 -17 -22 -10 -13 8 -12 12 5 25 15 13 16 15
3 11 -9 -2 -19 1 -22 9 -3 9 0 12 11 8 8 -3 19 0 24 8 7 12 9 12 9 -1 1 -35
19 16 26 74 4 34 9 64 10 69 1 4 2 19 3 33 1 21 5 25 20 21 10 -2 23 -2 29 2
9 5 62 6 115 2z m72 -592 c22 -5 47 -13 55 -16 8 -3 20 -7 25 -8 6 -1 26 -9
45 -18 34 -15 46 -25 118 -100 18 -19 45 -41 60 -48 34 -18 53 -41 42 -53 -5
-5 -6 -14 -3 -22 3 -8 -7 -15 -31 -20 -20 -3 -39 -10 -42 -15 -3 -5 -24 -9
-47 -9 -26 0 -61 -10 -94 -27 -49 -26 -70 -46 -40 -40 7 1 12 -8 11 -20 -1
-29 4 -29 122 8 79 24 109 29 149 24 56 -7 110 -23 140 -42 11 -7 27 -13 37
-13 15 0 16 4 7 27 -7 19 -7 28 2 34 7 4 14 15 15 24 1 9 4 18 6 18 2 1 25 10
51 19 41 13 49 14 54 2 3 -8 10 -14 17 -14 22 0 37 -17 42 -46 8 -44 30 -122
56 -193 19 -54 24 -60 28 -39 6 28 53 88 69 88 6 0 22 18 36 40 29 45 47 50
69 18 20 -29 21 -44 1 -28 -9 7 -18 10 -21 7 -10 -10 20 -68 32 -63 12 5 24
-45 24 -102 0 -54 -58 -262 -95 -338 -38 -81 -58 -104 -86 -104 -18 0 -19 6
-16 84 4 90 14 109 80 150 21 13 27 24 25 42 -4 30 -21 33 -28 5 -8 -31 -37
-61 -60 -61 -17 0 -20 7 -21 43 l-1 42 -8 -46 c-6 -36 -17 -182 -20 -257 0 -9
-10 -12 -27 -10 -26 3 -28 0 -31 -41 -2 -30 2 -49 14 -62 13 -15 19 -17 26 -7
5 8 8 1 8 -18 0 -18 -6 -34 -13 -37 -19 -7 -41 8 -33 22 5 7 -4 11 -23 11 -17
0 -31 -4 -31 -10 0 -5 5 -10 10 -10 6 0 10 -10 9 -22 0 -13 -3 -17 -6 -10 -2
6 -14 12 -25 12 -14 0 -18 -5 -14 -15 4 -11 -3 -19 -19 -25 -14 -5 -28 -17
-31 -25 -4 -8 -12 -15 -20 -15 -7 0 -20 -12 -28 -27 -11 -20 -15 -23 -16 -10
0 9 -7 17 -15 17 -18 0 -38 -37 -31 -56 5 -12 -1 -15 -22 -12 -23 3 -27 -1
-28 -25 -1 -30 -14 -49 -21 -30 -3 9 -11 6 -26 -7 -12 -12 -28 -18 -39 -15
-12 4 -24 -4 -40 -29 -15 -24 -28 -34 -38 -30 -8 4 -25 9 -38 11 -18 4 -21 2
-15 -12 4 -13 3 -16 -6 -11 -9 6 -12 1 -9 -15 3 -20 -2 -24 -31 -26 -19 -2
-38 -9 -43 -16 -6 -9 -8 -9 -8 2 0 11 -6 9 -22 -6 -13 -11 -39 -21 -58 -22
-19 -2 -46 -4 -60 -5 -14 -2 -33 -4 -43 -4 -13 -2 -16 -8 -11 -27 3 -14 2 -25
-3 -25 -15 0 -33 23 -33 42 0 13 -8 18 -25 18 -17 0 -25 -6 -25 -17 0 -15 -2
-15 -9 -4 -5 8 -15 11 -23 8 -15 -5 -88 63 -88 83 0 5 -11 17 -25 26 -14 9
-25 21 -25 28 0 6 -7 20 -16 31 -12 16 -16 17 -23 6 -11 -17 -41 -7 -41 14 0
9 -5 13 -11 10 -6 -4 -13 2 -16 14 -6 25 -18 27 -27 6 -11 -29 -86 -8 -86 24
0 6 -7 11 -15 11 -8 0 -15 -4 -15 -10 0 -18 -15 -11 -57 25 -31 27 -47 51 -62
98 -20 58 -26 87 -51 227 -4 25 -24 94 -44 153 -35 105 -36 110 -24 168 14 66
3 115 -35 156 -20 22 -20 23 -2 43 24 26 33 25 44 -4 16 -39 38 -40 43 0 2 19
2 37 -1 40 -3 3 -4 20 -3 39 2 18 -1 35 -6 39 -8 5 -1 101 9 109 2 2 20 7 39
10 38 5 62 -6 73 -35 3 -10 13 -18 22 -18 18 0 19 -5 5 -31 -8 -13 -7 -25 1
-40 9 -17 17 -20 42 -15 17 4 34 11 38 18 5 7 41 9 117 6 65 -3 114 -2 120 4
6 6 12 6 16 -1 11 -17 26 -13 23 7 -6 33 -28 62 -47 62 -11 0 -20 5 -20 11 0
5 -5 7 -10 4 -6 -4 -33 -4 -59 0 -42 6 -50 10 -54 31 -2 13 0 27 5 30 18 11
78 113 78 132 0 10 18 37 41 59 53 53 137 85 264 102 6 0 28 -4 50 -10z m-929
-34 l36 -35 -30 -29 c-27 -24 -31 -35 -30 -75 0 -25 2 -46 5 -46 2 0 31 12 65
26 67 28 101 26 118 -7 15 -28 -7 -61 -68 -99 -38 -24 -54 -29 -83 -24 -46 7
-116 -30 -98 -52 8 -10 5 -19 -16 -38 -18 -17 -26 -33 -24 -53 2 -36 -55 -173
-73 -173 -5 0 -7 -4 -3 -9 3 -5 -1 -15 -8 -23 -8 -7 -25 -31 -39 -53 -32 -50
-71 -74 -93 -55 -9 8 -15 8 -15 2 0 -6 -9 -9 -20 -7 -14 3 -20 -2 -20 -16 0
-10 -9 -28 -20 -39 -11 -11 -20 -24 -20 -30 0 -5 -4 -10 -9 -10 -5 0 -28 -18
-51 -39 -49 -45 -76 -53 -128 -39 -62 17 -114 17 -176 0 -58 -16 -59 -16 -77
7 -11 13 -25 21 -33 18 -8 -3 -20 1 -26 8 -7 8 -27 17 -44 21 -23 4 -38 15
-51 37 -10 18 -37 51 -61 75 -38 38 -43 48 -42 85 0 23 -3 67 -7 97 -11 84 15
153 114 295 128 185 228 267 303 249 18 -4 87 -8 154 -8 125 -1 141 -6 157
-48 7 -19 37 -25 37 -8 0 20 93 70 129 70 47 -1 71 -19 60 -45 -11 -29 -11
-41 1 -29 6 6 13 23 16 39 16 91 104 122 170 60z m-1346 -770 c0 -14 -4 -25
-8 -25 -5 0 -9 -6 -10 -12 -3 -40 -7 -58 -12 -58 -3 0 -6 -8 -7 -17 -1 -10 -3
-31 -5 -47 -4 -43 15 -42 62 5 42 42 94 62 83 33 -4 -10 0 -12 13 -8 15 5 14
2 -4 -11 -12 -9 -28 -15 -35 -12 -12 4 -68 -49 -100 -95 -9 -13 -14 -16 -11
-7 4 12 -1 17 -20 17 -18 0 -28 -8 -36 -29 -7 -16 -16 -27 -20 -24 -4 3 -10
-2 -14 -10 -3 -8 -2 -15 2 -15 14 0 28 15 42 45 13 29 14 29 18 7 2 -13 -1
-37 -7 -54 -6 -17 -11 -73 -11 -124 l0 -94 -27 -1 c-16 -1 -37 -2 -48 -3 -41
-2 -46 17 -25 93 22 79 24 91 11 91 -4 0 -23 -35 -42 -77 -44 -104 -107 -223
-129 -248 -9 -11 -34 -50 -54 -87 -21 -38 -41 -68 -46 -68 -4 0 -10 -10 -13
-22 -4 -12 -9 -19 -13 -15 -6 6 60 125 77 137 10 8 84 154 81 163 -1 4 2 7 7
7 5 0 12 13 16 30 4 16 11 32 16 35 5 4 9 11 9 18 0 16 -20 -15 -70 -107 -45
-85 -51 -94 -90 -134 -14 -14 -19 -22 -13 -18 9 5 11 2 7 -8 -3 -9 -10 -13
-15 -10 -5 3 -10 -3 -10 -13 -1 -17 -2 -17 -6 0 -6 24 -15 21 -38 -12 -11 -17
-21 -29 -22 -27 -6 5 50 162 74 211 58 114 191 289 281 369 31 28 42 34 42 22
0 -10 5 -14 10 -11 6 3 10 15 10 26 0 11 7 22 15 25 13 5 25 29 31 64 2 8 5
26 8 40 3 14 9 40 12 58 7 38 34 44 34 7z m3057 -629 c-3 -6 5 -22 17 -36 12
-14 36 -59 52 -100 16 -41 44 -97 63 -125 45 -67 60 -97 70 -142 7 -29 9 -32
10 -13 1 20 3 22 11 10 13 -20 13 -40 -1 -40 -11 0 -59 -51 -147 -155 -27 -33
-98 -105 -157 -159 l-107 -100 -102 -8 c-55 -5 -146 -12 -201 -17 -55 -4 -104
-10 -110 -11 -31 -11 -335 51 -335 68 0 4 24 23 53 42 28 19 60 42 70 52 17
17 17 18 0 19 -11 0 -13 3 -5 6 21 8 13 21 -10 16 -21 -4 -21 -3 -6 9 12 10
14 19 7 31 -14 25 -3 37 34 37 18 0 28 4 22 8 -5 4 -11 14 -13 22 -2 8 -8 17
-13 18 -5 2 -9 12 -9 21 0 10 -12 23 -26 29 -14 7 -22 17 -19 22 3 6 1 10 -4
10 -6 0 -11 -6 -11 -12 0 -7 -7 0 -15 16 -23 43 -14 56 31 46 21 -5 41 -7 45
-4 13 8 59 -15 59 -30 0 -17 29 -28 85 -31 29 -1 47 4 68 21 24 21 47 27 143
40 16 2 46 6 67 10 24 4 37 2 37 -5 0 -6 -8 -8 -17 -5 -14 5 -15 4 -4 -4 14
-10 81 22 81 39 0 5 4 8 8 7 26 -8 220 153 258 214 28 43 43 95 25 84 -6 -4
-9 -11 -7 -15 3 -4 -3 -20 -13 -35 -13 -19 -20 -24 -24 -14 -4 10 -7 10 -16
-2 -6 -8 -11 -11 -11 -7 0 5 9 22 21 38 15 22 17 27 5 23 -9 -3 -16 -11 -16
-17 0 -6 -3 -8 -6 -5 -3 4 2 18 11 32 12 17 15 36 11 56 -3 17 -1 30 4 30 6 0
10 12 10 26 0 23 2 25 15 14 9 -7 14 -18 12 -24z m-3274 -206 c-3 -11 -10 -20
-15 -20 -5 0 -15 -15 -23 -34 -8 -18 -26 -47 -40 -64 -22 -27 -24 -33 -13 -57
11 -24 9 -29 -33 -68 -24 -23 -55 -48 -69 -55 -14 -7 -41 -24 -59 -38 -19 -13
-40 -23 -47 -20 -11 4 -26 -16 -28 -38 -1 -4 -19 -15 -41 -24 -22 -9 -43 -20
-47 -26 -4 -6 -8 -8 -8 -3 0 11 -70 -69 -70 -81 0 -6 -4 -14 -10 -17 -6 -4 -7
1 -3 12 12 32 96 187 115 213 36 49 48 65 75 99 26 33 27 33 35 11 6 -18 11
-20 22 -11 21 17 27 -9 8 -32 -14 -16 -13 -17 19 -10 19 3 36 10 37 15 2 4 9
14 15 21 7 7 28 35 46 62 19 28 39 53 44 56 5 3 9 9 9 12 0 19 12 47 19 47 5
0 9 4 9 9 0 5 7 25 15 46 13 29 19 34 29 25 8 -6 12 -20 9 -30z m-367 -126
c-25 -51 -42 -104 -33 -104 3 0 15 15 26 33 25 40 71 95 71 84 0 -4 -16 -33
-35 -63 -20 -31 -30 -52 -23 -48 9 5 8 2 -1 -10 -8 -10 -62 -113 -120 -230
l-106 -213 -2 55 c-2 35 3 66 13 86 27 54 35 78 23 70 -9 -5 -10 1 -5 22 l7
29 -20 -25 -20 -25 15 50 c32 106 38 121 85 201 61 102 94 142 122 146 31 4
31 -2 3 -58z m2483 -168 c-13 -42 -27 -76 -31 -76 -12 0 -10 58 3 81 6 11 9
24 7 29 -2 4 -52 -12 -112 -36 -59 -24 -111 -44 -115 -44 -12 1 35 32 89 58
50 24 52 27 28 30 -15 2 -36 -2 -48 -8 -12 -6 -78 -14 -147 -17 -102 -5 -125
-4 -118 7 6 10 0 12 -24 8 -38 -6 -43 17 -5 26 29 8 372 9 383 1 4 -2 30 1 57
8 27 7 51 12 53 11 1 -2 -8 -37 -20 -78z m-555 39 c8 -8 19 -15 25 -15 6 0 11
-5 11 -11 0 -8 -16 -10 -50 -6 -27 3 -50 2 -50 -2 0 -5 28 -11 63 -13 41 -4
77 -14 107 -32 25 -14 37 -26 28 -26 -10 0 -18 -5 -18 -10 0 -6 -13 -4 -30 5
-50 26 -57 21 -64 -47 -9 -98 -7 -208 5 -230 9 -17 17 -19 47 -13 21 4 48 9
62 11 14 3 34 8 45 11 11 4 25 8 30 9 36 10 81 30 82 38 1 5 20 20 43 33 23
14 45 35 50 48 6 15 26 29 57 41 60 22 70 31 55 46 -9 9 -13 7 -18 -5 -4 -12
-17 -17 -43 -16 -36 1 -36 1 -10 12 14 7 33 18 41 25 11 9 22 9 39 3 13 -5 20
-10 15 -10 -6 -1 -1 -7 9 -15 15 -10 17 -17 8 -27 -10 -13 -27 -70 -28 -94 0
-6 -11 -22 -23 -35 -13 -14 -22 -34 -21 -45 1 -11 -3 -33 -10 -50 -6 -16 -21
-52 -31 -80 -82 -209 -146 -356 -173 -394 -40 -56 -102 -121 -116 -121 -15 0
-14 17 2 23 26 10 -28 37 -73 36 -25 0 -69 0 -98 1 -31 1 -60 -4 -69 -12 -9
-7 -19 -12 -22 -12 -3 1 -16 -2 -29 -7 -32 -12 -39 -11 -45 6 -6 13 9 131 18
145 2 3 15 59 29 125 14 66 37 167 50 225 14 58 28 146 31 195 3 50 8 112 10
138 3 37 0 50 -12 54 -25 10 -59 -42 -89 -136 -27 -84 -104 -250 -152 -326
-14 -22 -38 -65 -53 -97 -30 -60 -57 -89 -44 -47 4 13 11 26 14 29 4 3 23 39
43 80 20 41 50 104 67 139 37 77 38 83 9 45 -13 -16 -22 -32 -20 -36 1 -5 -4
-8 -11 -8 -17 0 -65 -66 -101 -138 -37 -73 -97 -165 -103 -158 -3 2 4 18 16
34 12 17 21 32 21 34 0 3 32 60 70 128 67 117 70 125 58 154 -9 23 -9 31 0 34
16 5 15 26 -4 112 -13 55 -21 73 -38 80 -23 8 -50 -6 -40 -22 4 -5 -9 -26 -27
-45 -22 -23 -30 -37 -21 -40 6 -3 12 -15 12 -27 0 -12 7 -31 15 -42 8 -12 12
-24 10 -26 -3 -3 1 -20 9 -39 8 -19 10 -43 6 -54 -4 -11 -5 -25 -3 -32 8 -21
-29 -117 -54 -140 -13 -13 -25 -23 -26 -23 -1 0 -3 62 -4 138 -3 162 -8 198
-30 206 -21 8 -59 -27 -85 -79 -12 -22 -49 -119 -84 -215 -34 -96 -74 -200
-89 -230 -29 -62 -29 -62 32 118 24 74 42 136 39 139 -3 3 1 12 9 20 34 34 17
60 -69 104 -40 20 -50 31 -50 50 0 25 4 26 73 16 42 -7 47 -12 30 -34 -12 -16
-12 -17 2 -5 14 11 17 8 22 -18 7 -33 21 -39 31 -14 3 9 -5 30 -19 49 l-26 33
47 27 c26 15 81 59 123 98 42 39 98 85 126 103 28 17 57 39 64 48 21 26 135
86 161 86 38 0 11 -19 -66 -46 -37 -13 -72 -28 -77 -33 -5 -5 28 4 74 20 46
16 96 29 111 29 40 0 58 10 58 31 0 10 7 19 15 19 8 0 15 5 15 10 0 16 57 12
74 -5z m685 -188 c6 -35 11 -87 11 -116 0 -49 -1 -51 -23 -46 -21 6 -27 -1
-55 -57 -17 -35 -40 -69 -52 -76 -24 -15 -26 -32 -4 -32 9 0 14 -6 11 -12 -2
-7 -10 -31 -18 -53 -8 -22 -17 -42 -20 -45 -13 -10 -143 -288 -168 -359 -14
-40 -30 -74 -36 -75 -22 -3 -15 41 20 118 21 44 52 122 71 171 53 146 113 287
129 305 8 9 15 27 15 41 0 13 13 76 29 139 16 63 32 135 36 160 7 44 7 44 25
22 10 -12 23 -50 29 -85z m-2884 -119 c-4 -13 -17 -50 -30 -83 -13 -33 -30
-97 -39 -141 -15 -75 -68 -239 -81 -252 -11 -11 8 65 36 146 34 97 38 129 12
92 -9 -14 -20 -27 -23 -30 -4 -3 -10 -12 -13 -20 -4 -8 -4 3 -1 25 6 38 5 39
-10 20 -30 -38 -17 7 30 105 45 94 80 144 94 135 5 -3 10 2 14 10 9 24 18 17
11 -7z m1281 -154 c73 -40 174 -107 174 -115 0 -11 -59 11 -102 38 -47 29 -53
29 -34 1 20 -29 20 -42 0 -34 -21 8 -54 -11 -54 -32 -1 -12 -5 -9 -15 10 -14
25 -76 55 -93 44 -4 -2 -14 -1 -22 4 -24 15 6 66 53 89 23 12 43 21 43 21 1 0
23 -12 50 -26z m1652 0 c26 -18 31 -84 7 -107 -48 -48 -127 -20 -133 46 -6 66
68 102 126 61z m2199 -130 c78 -75 127 -140 117 -155 -4 -6 -11 -6 -20 2 -8 6
-14 9 -14 6 0 -3 -14 7 -31 23 -17 15 -47 31 -65 35 -48 8 -42 25 8 25 l42 0
-39 20 c-22 11 -44 20 -50 20 -5 0 -26 14 -45 30 -19 16 -41 31 -47 31 -7 1
-17 2 -23 3 -5 0 -10 6 -10 11 1 6 16 9 35 7 30 -2 33 -1 27 20 -5 22 -5 22
19 6 13 -9 56 -47 96 -84z"/>
<path d="M3703 4740 c-29 -7 -143 -75 -143 -86 0 -2 11 -4 25 -4 15 0 36 13
56 35 33 36 49 37 49 5 0 -13 -9 -20 -27 -23 -21 -3 222 -1 280 3 15 1 6 19
-13 25 -11 4 -17 11 -14 17 4 7 2 8 -4 4 -6 -4 -31 0 -54 7 -57 20 -116 26
-155 17z"/>
<path d="M3103 4708 c26 -12 20 -13 -57 -12 -51 1 -89 -3 -93 -9 -4 -6 -1 -7
7 -2 8 5 11 4 6 -3 -4 -6 -14 -8 -22 -5 -9 3 -27 -6 -45 -23 -30 -29 -38 -54
-17 -54 28 0 77 25 81 42 5 18 37 26 37 9 0 -5 3 -16 6 -24 3 -9 -2 -17 -13
-21 -10 -2 36 -2 102 1 66 3 121 6 122 7 2 1 -2 16 -8 32 -15 38 -51 64 -97
70 l-37 5 28 -13z"/>
<path d="M3451 4246 c-19 -7 -38 -22 -42 -34 -8 -22 -7 -22 75 -22 58 0 86 4
89 13 3 6 6 2 6 -11 1 -13 7 -22 14 -21 16 3 122 -46 131 -60 5 -8 -20 -11
-85 -11 -89 0 -117 -11 -42 -17 20 -1 39 -7 43 -13 4 -6 13 -10 20 -8 7 2 23
-11 35 -28 20 -30 22 -31 33 -13 7 10 19 19 28 19 41 0 75 93 39 106 -8 4 -15
14 -15 24 0 21 -11 25 -70 25 -38 0 -47 4 -57 25 l-12 25 -6 -22 c-7 -22 -25
-32 -25 -15 0 9 -63 38 -100 46 -14 3 -40 -1 -59 -8z"/>
<path d="M3250 4240 c0 -5 -9 -10 -20 -10 -11 0 -20 -6 -20 -12 0 -9 -4 -8
-10 2 -6 9 -10 10 -10 3 0 -7 -16 -15 -35 -19 -19 -3 -35 -11 -35 -16 0 -6
-10 -8 -22 -5 -12 4 -36 0 -52 -7 -17 -8 -39 -17 -49 -20 -17 -5 -17 -4 -2 16
23 34 18 44 -9 19 -32 -30 -42 -95 -21 -143 14 -34 17 -36 45 -28 16 5 34 11
40 15 5 3 10 2 10 -2 0 -5 12 -21 26 -36 25 -27 27 -27 45 -11 10 9 21 24 24
34 7 23 66 49 98 43 16 -3 27 -1 27 6 0 7 -36 11 -110 11 -69 0 -110 4 -110
10 0 12 83 50 109 50 9 0 22 5 27 10 10 10 24 13 111 27 28 4 31 8 22 24 -5
10 -14 19 -20 19 -6 0 -17 7 -25 15 -18 17 -34 20 -34 5z"/>
<path d="M2143 5061 c3 -12 -3 -30 -14 -45 -10 -13 -36 -59 -57 -103 -48 -99
-57 -112 -109 -156 -23 -19 -39 -37 -36 -41 4 -3 -3 -6 -14 -6 -30 0 -35 -12
-12 -28 17 -12 19 -20 13 -58 -3 -24 -4 -44 0 -44 3 0 21 8 41 17 37 17 39 26
20 76 -4 8 11 32 34 58 24 27 50 71 66 114 15 39 44 98 66 133 42 67 46 94 15
100 -15 3 -18 0 -13 -17z"/>
<path d="M2307 5017 c-9 -29 -21 -68 -27 -88 -6 -20 -29 -56 -52 -80 -23 -24
-41 -47 -40 -50 0 -3 -10 -12 -23 -19 -30 -16 -40 -43 -25 -69 6 -12 8 -38 4
-61 -9 -52 8 -52 24 2 7 23 22 52 33 66 18 24 19 24 19 3 0 -51 47 1 106 116
21 41 21 41 2 61 -23 22 -25 60 -9 121 17 62 8 61 -12 -2z"/>
<path d="M2896 2914 c-8 -7 -16 -10 -20 -7 -3 4 -35 -8 -71 -26 -52 -26 -70
-42 -86 -73 -11 -21 -24 -36 -28 -33 -14 8 -18 -62 -5 -80 7 -9 10 -25 7 -35
-4 -14 0 -20 10 -20 9 0 28 -5 44 -11 22 -8 25 -12 13 -20 -11 -8 -8 -8 10 -3
14 4 30 7 36 7 6 0 11 5 11 11 -1 55 5 96 12 91 5 -3 13 4 16 16 4 11 20 28
36 38 16 10 26 21 22 24 -3 4 -1 7 5 7 9 0 20 28 47 116 5 16 -43 14 -59 -2z"/>
</g>

</svg>
